<svg width="120" height="120" viewBox="0 0 120 120" fill="none" xmlns="http://www.w3.org/2000/svg">
<rect width="120" height="120" rx="16" fill="#1F2937"/>
<path d="M28.824 66.532L26.872 68.452L16.984 60.516L26.872 52.228L28.824 54.148L20.952 60.516L28.824 66.532ZM89.4623 45.604L78.5503 73.284H75.6382L86.6463 45.604H89.4623ZM98.513 60.516L90.609 54.148L92.529 52.228L102.449 60.516L92.529 68.452L90.609 66.532L98.513 60.516Z" fill="#34D399"/>
<path d="M50.5205 70.5H39.4805V53.892L42.2645 51.172H39.0965V48.388H50.5205V51.172H42.6485V59.044L44.9845 56.676H50.5205V59.428H42.6485V67.716H50.5205V70.5ZM69.0858 59.428L66.3018 62.212H58.4298V70.5H55.2618V53.892L58.0458 51.172H54.8778V48.388H66.3018L69.0858 51.172V59.428ZM65.9178 59.428V51.172H58.4298V61.828L60.7658 59.428H65.9178Z" fill="white"/>
</svg>
