<svg width="243" height="39" viewBox="0 0 243 39" fill="none" xmlns="http://www.w3.org/2000/svg">
<path d="M14.3775 26.032L12.4255 27.952L2.53747 20.016L12.4255 11.728L14.3775 13.648L6.50547 20.016L14.3775 26.032ZM227.109 5.104L216.197 32.784H213.285L224.293 5.104H227.109ZM236.16 20.016L228.256 13.648L230.176 11.728L240.096 20.016L230.176 27.952L228.256 26.032L236.16 20.016Z" fill="#34D399"/>
<path d="M36.074 30H25.034V13.392L27.818 10.672H24.65V7.888H36.074V10.672H28.202V18.544L30.538 16.176H36.074V18.928H28.202V27.216H36.074V30ZM48.9112 30H39.0232V24.752L46.1592 17.584V16.176H39.0232V13.392H48.9112V18.832L41.9032 25.84V27.216H48.9112V30ZM64.2227 30H55.5507L52.7987 27.216V16.176L55.5507 13.392H61.4707L64.2227 16.176V21.712L61.4707 24.464H56.3507L59.1667 21.712H61.0867V16.176H55.9667V27.216H64.2227V30ZM79.8165 35.536L76.6805 38.672V27.632L74.3125 30H71.1445L68.3925 27.216V16.176L71.1445 13.392H79.8165V35.536ZM76.6805 27.216V13.776L74.3125 16.176H71.5605V27.216H76.6805ZM96.632 30H93.496V27.632L91.128 30H87.96L85.176 27.216V13.392H88.344V27.216H93.496V13.392H96.632V30ZM105.349 10.672H102.181V7.504H105.349V10.672ZM105.349 30H102.181V15.824L105.349 12.624V30ZM121.973 30H113.301L110.549 27.216V16.176L113.301 13.392H119.221L121.973 16.176V21.712L119.221 24.464H114.101L116.917 21.712H118.837V16.176H113.717V27.216H121.973V30ZM132.35 30H129.214L126.462 27.216V7.472L129.63 4.336V27.216H132.35V30ZM155.108 18.928L152.324 21.712H144.452V30H141.284V13.392L144.068 10.672H140.9V7.888H152.324L155.108 10.672V18.928ZM151.94 18.928V10.672H144.452V21.328L146.788 18.928H151.94ZM162.849 10.672H159.681V7.504H162.849V10.672ZM162.849 30H159.681V15.824L162.849 12.624V30ZM179.409 18.928L176.241 22.096V16.176H171.537V30H168.369V13.392H171.537V15.792L173.841 13.392H176.657L179.409 16.176V18.928ZM194.285 30H185.613L182.861 27.216V16.176L185.613 13.392H191.533L194.285 16.176V21.712L191.533 24.464H186.413L189.229 21.712H191.149V16.176H186.029V27.216H194.285V30ZM208.151 16.176H200.247V18.928H204.599L207.383 21.712V27.216L204.599 30H197.079V27.216H204.215V21.712H199.863L197.079 18.928V16.176L199.863 13.392H205.335L208.151 16.176Z" fill="white"/>
</svg>
